<?xml version="1.0" standalone="no"?>
<svg xmlns:xlink="http://www.w3.org/1999/xlink" id="wave" style="transform:rotate(180deg); transition: 0.3s" viewBox="0 0 1440 490" version="1.1" xmlns="http://www.w3.org/2000/svg"><defs><linearGradient id="sw-gradient-0" x1="0" x2="0" y1="1" y2="0"><stop stop-color="rgba(243, 106, 62, 1)" offset="0%"/><stop stop-color="rgba(255, 179, 11, 1)" offset="100%"/></linearGradient></defs><path style="transform:translate(0, 0px); opacity:1" fill="url(#sw-gradient-0)" d="M0,49L60,49C120,49,240,49,360,89.8C480,131,600,212,720,204.2C840,196,960,98,1080,98C1200,98,1320,196,1440,196C1560,196,1680,98,1800,98C1920,98,2040,196,2160,204.2C2280,212,2400,131,2520,81.7C2640,33,2760,16,2880,65.3C3000,114,3120,229,3240,285.8C3360,343,3480,343,3600,294C3720,245,3840,147,3960,122.5C4080,98,4200,147,4320,155.2C4440,163,4560,131,4680,122.5C4800,114,4920,131,5040,122.5C5160,114,5280,82,5400,122.5C5520,163,5640,278,5760,269.5C5880,261,6000,131,6120,106.2C6240,82,6360,163,6480,220.5C6600,278,6720,310,6840,343C6960,376,7080,408,7200,416.5C7320,425,7440,408,7560,334.8C7680,261,7800,131,7920,89.8C8040,49,8160,98,8280,130.7C8400,163,8520,180,8580,187.8L8640,196L8640,490L8580,490C8520,490,8400,490,8280,490C8160,490,8040,490,7920,490C7800,490,7680,490,7560,490C7440,490,7320,490,7200,490C7080,490,6960,490,6840,490C6720,490,6600,490,6480,490C6360,490,6240,490,6120,490C6000,490,5880,490,5760,490C5640,490,5520,490,5400,490C5280,490,5160,490,5040,490C4920,490,4800,490,4680,490C4560,490,4440,490,4320,490C4200,490,4080,490,3960,490C3840,490,3720,490,3600,490C3480,490,3360,490,3240,490C3120,490,3000,490,2880,490C2760,490,2640,490,2520,490C2400,490,2280,490,2160,490C2040,490,1920,490,1800,490C1680,490,1560,490,1440,490C1320,490,1200,490,1080,490C960,490,840,490,720,490C600,490,480,490,360,490C240,490,120,490,60,490L0,490Z"/></svg>